<?xml version="1.0" encoding="UTF-8" ?>
<svg xmlns="http://www.w3.org/2000/svg" width="308.504" height="481.75" version="1.1">
  <g>
    <path fill="none" stroke="#7fb3ff" stroke-width="4" stroke-dasharray="3" d="M155.085 10.5v42"/>
    <path fill="#ffd03f" d="M125.088 430.212l14.38-55.363-64.711 33.074 57.52-45.298-42.421-25.165 48.983 14.379-13.033-30.76 28.76 27.165 28.042-36.668-12.942 38.826 58.24-12.223-53.926 28.041 35.791 42.434-44.419-34.525 9.348 44.579-20.133-43.14-29.479 54.644z"/>
    <path fill="none" stroke="#7fb3ff" stroke-width="4" stroke-dasharray="3" d="M162.335 385.5l11.25 75M214.835 438.5l-37.5-50.5M100.085 432.25l40.997-48.716"/>
    <circle r="7.5" cy="53.25" cx="155.085" fill="#7feeff" stroke="#000" stroke-width="2"/>
    <circle r="41.25" cy="111.75" cx="155.002" fill="#1ca8e5" stroke="#000" stroke-width="2"/>
    <circle r="34.779" cy="111.75" cx="155.002" fill="#1fbaff"/>
    <path d="M199.602 239.25c0 2.813-6.401 5.201-6.938 7.855-.556 2.75 5.712 8.026 4.639 10.549-1.075 2.525-13.397-1.237-14.931 1.001-1.531 2.233 4.869 10.724 2.939 12.612-1.921 1.879-10.065-4.411-12.323-2.933-2.241 1.466-.799 8.83-3.314 9.843-2.487 1.002-5.928-1.938-8.628-1.434-2.467.46-4.442 7.438-7.043 7.438-2.813 0-5.393-4.785-8.047-5.321-2.75-.556-6.377 1.34-8.9.267-2.525-1.074-3.293-5.491-5.53-7.025-2.234-1.531-4.813-2.391-6.7-4.32-1.879-1.921-.504-5.93-1.982-8.188-1.466-2.241-8.614-1.408-9.627-3.923-1.002-2.487 1.716-6.289 1.212-8.988-.46-2.468-2.095-4.832-2.095-7.433 0-2.813 7.438-4.198 7.975-6.852.556-2.75-7.603-7.72-6.53-10.243 1.075-2.525 7.79-1.808 9.324-4.045 1.531-2.234-3.308-9.982-1.378-11.87 1.921-1.879 10.595 4.729 12.853 3.251 2.241-1.466.611-9.716 3.125-10.729 2.487-1.002 6.816 4.89 9.517 4.386 2.468-.46 4.183-11.956 6.784-11.956 2.813 0 5.561 7.079 8.215 7.616 2.75.556 5.925.16 8.447 1.233 2.525 1.075 3.855 4.417 6.093 5.951 2.233 1.531 9.311-1.876 11.199.054 1.879 1.921-5.539 11.431-4.061 13.688 1.466 2.241 13.758-.984 14.771 1.531 1.002 2.488-10.329 8.736-9.825 11.436.459 2.467 10.759 3.947 10.759 6.549z" fill="#a6a7e5"/>
    <path d="M199.602 239.25c0 2.813-6.401 5.201-6.938 7.855-.556 2.75 5.712 8.026 4.639 10.549-1.075 2.525-13.397-1.237-14.931 1.001-1.531 2.233 4.869 10.724 2.939 12.612-1.921 1.879-10.065-4.411-12.323-2.933-2.241 1.466-.799 8.83-3.314 9.843-2.487 1.002-5.928-1.938-8.628-1.434-2.467.46-4.442 7.438-7.043 7.438-2.813 0-5.393-4.785-8.047-5.321-2.75-.556-6.377 1.34-8.9.267-2.525-1.074-3.293-5.491-5.53-7.025-2.234-1.531-4.813-2.391-6.7-4.32-1.879-1.921-.504-5.93-1.982-8.188-1.466-2.241-8.614-1.408-9.627-3.923-1.002-2.487 1.716-6.289 1.212-8.988-.46-2.468-2.095-4.832-2.095-7.433 0-2.813 7.438-4.198 7.975-6.852.556-2.75-7.603-7.72-6.53-10.243 1.075-2.525 7.79-1.808 9.324-4.045 1.531-2.234-3.308-9.982-1.378-11.87 1.921-1.879 10.595 4.729 12.853 3.251 2.241-1.466.611-9.716 3.125-10.729 2.487-1.002 6.816 4.89 9.517 4.386 2.468-.46 4.183-11.956 6.784-11.956 2.813 0 5.561 7.079 8.215 7.616 2.75.556 5.925.16 8.447 1.233 2.525 1.075 3.855 4.417 6.093 5.951 2.233 1.531 9.311-1.876 11.199.054 1.879 1.921-5.539 11.431-4.061 13.688 1.466 2.241 13.758-.984 14.771 1.531 1.002 2.488-10.329 8.736-9.825 11.436.459 2.467 10.759 3.947 10.759 6.549z" fill="none" stroke="#000" stroke-width="2"/>
    <path d="M194.416 239.25c0 2.461-6.345 4.481-6.813 6.804-.487 2.417 5.726 7.271 4.783 9.488-.943 2.22-12.45-1.454-13.798.512-1.345 1.963 4.86 9.909 3.165 11.568-1.688 1.651-9.315-4.465-11.299-3.167-1.969 1.289-.36 8.407-2.57 9.297-2.187.88-5.404-2.384-7.778-1.942-2.162.402-3.825 7.261-6.103 7.261-2.461 0-4.651-4.913-6.974-5.381-2.417-.487-5.812 1.85-8.029.908-2.22-.943-2.558-5.443-4.525-6.791-1.963-1.345-4.67-1.573-6.329-3.269-1.651-1.688.109-5.65-1.189-7.634-1.289-1.97-8.216-.9-9.106-3.111-.88-2.187 2.188-5.725 1.746-8.098-.402-2.162-2.525-4.168-2.525-6.446 0-2.461 7.265-3.596 7.732-5.918.486-2.417-7.401-6.998-6.459-9.215.943-2.22 7.48-1.242 8.828-3.208 1.345-1.963-3.478-9.25-1.782-10.909 1.688-1.651 9.785 4.746 11.769 3.448 1.969-1.289.194-9.193 2.404-10.083 2.186-.88 6.191 5 8.564 4.559 2.162-.402 3.595-11.264 5.874-11.264 2.461 0 4.799 6.946 7.122 7.414 2.417.486 5.412-.521 7.629.421 2.22.943 3.056 4.491 5.022 5.838 1.963 1.345 8.658-2.208 10.316-.513 1.651 1.688-5.465 10.526-4.167 12.51 1.289 1.969 12.774-1.219 13.665.992.88 2.186-9.821 7.891-9.379 10.264.403 2.161 10.206 3.386 10.206 5.665z" fill="#b8baff"/>
    <path d="M217.905 358.655c0 2.637 11.373 6.585 10.595 8.962-.811 2.47-2.39 6.244-3.9 8.292-1.508 2.044-8.146-.302-10.21 1.18-2.045 1.468-4.011 2.039-6.462 2.817-2.313.733-4.192-4.879-6.747-4.879-2.637 0-2.894.468-5.271-.311-2.47-.811-3.127-.36-5.176-1.871-2.043-1.508-9.976 3.573-11.457 1.51-1.468-2.045 2.057-6.7 1.278-9.151-.733-2.313-8.961-3.994-8.961-6.549 0-2.637 3.266-6.002 4.045-8.378.81-2.47 5.306-3.364 6.817-5.412 1.508-2.044 1.934-5.276 3.997-6.758 2.044-1.468 2.938-8.095 5.389-8.872 2.313-.733 6.783.409 9.338.409 2.637 0 4.295 7.9 6.671 8.68 2.47.81 2.74 3.257 4.789 4.768 2.043 1.508 1.41 3.222 2.892 5.286 1.468 2.044 11.769-.711 12.546 1.74.733 2.312-10.173 5.982-10.173 8.537z" fill="#7cbaff"/>
    <path d="M217.905 358.655c0 2.637 11.373 6.585 10.595 8.962-.811 2.47-2.39 6.244-3.9 8.292-1.508 2.044-8.146-.302-10.21 1.18-2.045 1.468-4.011 2.039-6.462 2.817-2.313.733-4.192-4.879-6.747-4.879-2.637 0-2.894.468-5.271-.311-2.47-.811-3.127-.36-5.176-1.871-2.043-1.508-9.976 3.573-11.457 1.51-1.468-2.045 2.057-6.7 1.278-9.151-.733-2.313-8.961-3.994-8.961-6.549 0-2.637 3.266-6.002 4.045-8.378.81-2.47 5.306-3.364 6.817-5.412 1.508-2.044 1.934-5.276 3.997-6.758 2.044-1.468 2.938-8.095 5.389-8.872 2.313-.733 6.783.409 9.338.409 2.637 0 4.295 7.9 6.671 8.68 2.47.81 2.74 3.257 4.789 4.768 2.043 1.508 1.41 3.222 2.892 5.286 1.468 2.044 11.769-.711 12.546 1.74.733 2.312-10.173 5.982-10.173 8.537z" fill="none" stroke="#000" stroke-width="2"/>
    <path d="M119.865 383.278c-1.74 1.74 2.179 10.646.09 11.684-2.101 1.044-5.387 2.345-7.662 2.677-2.27.331-4.941-4.786-7.205-5.162-2.242-.373-3.929-1.248-5.992-2.315-1.967-1.018-.065-5.434-1.715-7.083-1.74-1.74-2.317-1.855-3.354-3.944-1.043-2.102-1.753-2.483-2.085-4.758-.332-2.27-7.721-4.173-7.345-6.437.373-2.242 5.103-3.123 6.17-5.186 1.018-1.967-2.545-7.818-.896-9.467 1.74-1.74 5.8-1.989 7.889-3.027 2.101-1.043 5.395.949 7.67.617 2.27-.332 4.608-1.917 6.871-1.541 2.243.373 6.752-2.808 8.815-1.74 1.966 1.018 4.081 4.368 5.73 6.018 1.74 1.74-1.63 7.433-.593 9.522 1.043 2.101-.125 3.892.207 6.166.331 2.27-1.007 3.146-1.384 5.408-.373 2.243 6.966 6.781 5.899 8.844-1.018 1.965-9.461-1.925-11.11-.276z" fill="#70a7e5"/>
    <path d="M119.865 383.278c-1.74 1.74 2.179 10.646.09 11.684-2.101 1.044-5.387 2.345-7.662 2.677-2.27.331-4.941-4.786-7.205-5.162-2.242-.373-3.929-1.248-5.992-2.315-1.967-1.018-.065-5.434-1.715-7.083-1.74-1.74-2.317-1.855-3.354-3.944-1.043-2.102-1.753-2.483-2.085-4.758-.332-2.27-7.721-4.173-7.345-6.437.373-2.242 5.103-3.123 6.17-5.186 1.018-1.967-2.545-7.818-.896-9.467 1.74-1.74 5.8-1.989 7.889-3.027 2.101-1.043 5.395.949 7.67.617 2.27-.332 4.608-1.917 6.871-1.541 2.243.373 6.752-2.808 8.815-1.74 1.966 1.018 4.081 4.368 5.73 6.018 1.74 1.74-1.63 7.433-.593 9.522 1.043 2.101-.125 3.892.207 6.166.331 2.27-1.007 3.146-1.384 5.408-.373 2.243 6.966 6.781 5.899 8.844-1.018 1.965-9.461-1.925-11.11-.276z" fill="none" stroke="#000" stroke-width="2"/>
    <circle r="7.5" cy="432.25" cx="100.085" fill="#7feeff" stroke="#000" stroke-width="2"/>
    <circle r="7.5" cy="463.5" cx="173.835" fill="#7feeff" stroke="#000" stroke-width="2"/>
    <circle r="7.5" cy="438.5" cx="214.835" fill="#7feeff" stroke="#000" stroke-width="2"/>
    <path d="M134.894 113.604v2H127.3c.082-.759.33-1.478.742-2.158.412-.68 1.228-1.581 2.444-2.704.979-.908 1.581-1.523 1.802-1.846.299-.446.449-.887.449-1.323 0-.482-.132-.853-.396-1.111-.265-.259-.63-.389-1.096-.389-.461 0-.827.135-1.099.405s-.429.718-.471 1.345l-2.156-.214c.129-1.182.535-2.031 1.216-2.545.681-.514 1.534-.772 2.557-.772 1.12 0 2 .3 2.641.9.641.6.961 1.346.961 2.238 0 .508-.092.991-.275 1.45-.183.459-.473.939-.87 1.441-.263.333-.74.813-1.431 1.438-.691.625-1.128 1.041-1.311 1.246a3.7 3.7 0 0 0-.445.6h4.332v-.001zM136.229 112.641l2.094-.255c.066.537.244.947.534 1.23.29.284.64.426 1.052.426.442 0 .814-.171 1.117-.513.302-.342.454-.804.454-1.385 0-.549-.145-.985-.433-1.307a1.369 1.369 0 0 0-1.056-.482c-.273 0-.6.054-.98.161l.238-1.755c.582.016 1.027-.111 1.333-.379.307-.268.46-.624.46-1.068 0-.377-.113-.679-.338-.903-.226-.225-.525-.337-.898-.337a1.3 1.3 0 0 0-.944.383c-.261.255-.42.627-.476 1.117l-2-.337c.138-.682.347-1.226.626-1.633.279-.407.668-.728 1.167-.961a3.923 3.923 0 0 1 1.679-.35c1.06 0 1.91.338 2.55 1.013.527.553.791 1.177.791 1.873 0 .988-.538 1.776-1.613 2.364.641.139 1.153.451 1.537.935.384.484.576 1.069.576 1.753 0 .994-.361 1.842-1.082 2.542-.721.7-1.618 1.05-2.691 1.05-1.018 0-1.861-.293-2.53-.88-.671-.587-1.059-1.354-1.167-2.302zM145.065 112.735l2.156-.224c.062.49.244.878.548 1.165.304.287.653.429 1.05.429.453 0 .836-.183 1.15-.549.314-.366.471-.918.471-1.657 0-.691-.159-1.21-.477-1.556-.318-.346-.731-.519-1.241-.519-.636 0-1.206.271-1.71.813l-1.728-.25 1.094-5.875h5.781v2.031h-4.146l-.357 1.908c.49-.23.991-.345 1.503-.345.976 0 1.803.348 2.481 1.043.679.696 1.018 1.599 1.018 2.708 0 .926-.27 1.752-.809 2.479-.734.992-1.754 1.488-3.058 1.488-1.042 0-1.892-.279-2.549-.837-.656-.559-1.049-1.31-1.177-2.252zM155.088 105.27h3.906v10.462c0 1.661.048 2.737.144 3.229.165.791.559 1.426 1.181 1.904s1.473.718 2.552.718c1.096 0 1.923-.226 2.48-.679.557-.452.892-1.008 1.005-1.667.113-.659.17-1.752.17-3.281V105.27h3.906v10.151c0 2.32-.105 3.959-.315 4.917-.21.958-.597 1.767-1.162 2.426-.565.659-1.319 1.185-2.264 1.576-.945.391-2.179.586-3.702.586-1.838 0-3.231-.213-4.181-.639-.949-.426-1.7-.98-2.251-1.661-.551-.681-.914-1.396-1.089-2.143-.254-1.107-.381-2.742-.381-4.904V105.27h.001z"/>
    <g>
      <path d="M134.894 242.18v2H127.3c.082-.759.33-1.478.742-2.158.412-.68 1.228-1.581 2.444-2.704.979-.908 1.581-1.523 1.802-1.846.299-.446.449-.887.449-1.323 0-.482-.132-.853-.396-1.111-.265-.259-.63-.389-1.096-.389-.461 0-.827.135-1.099.405s-.429.718-.471 1.345l-2.156-.214c.129-1.182.535-2.031 1.216-2.545.681-.514 1.534-.772 2.557-.772 1.12 0 2 .3 2.641.9.641.6.961 1.346.961 2.238 0 .508-.092.991-.275 1.45-.183.459-.473.939-.87 1.441-.263.333-.74.813-1.431 1.438-.691.625-1.128 1.041-1.311 1.246a3.7 3.7 0 0 0-.445.6h4.332v-.001zM136.229 241.217l2.094-.255c.066.537.244.947.534 1.23.29.284.64.426 1.052.426.442 0 .814-.171 1.117-.513.302-.342.454-.804.454-1.385 0-.549-.145-.985-.433-1.307a1.369 1.369 0 0 0-1.056-.482c-.273 0-.6.054-.98.161l.238-1.755c.582.016 1.027-.111 1.333-.379.307-.268.46-.624.46-1.068 0-.377-.113-.679-.338-.903-.226-.225-.525-.337-.898-.337a1.3 1.3 0 0 0-.944.383c-.261.255-.42.627-.476 1.117l-2-.337c.138-.682.347-1.226.626-1.633.279-.407.668-.728 1.167-.961a3.923 3.923 0 0 1 1.679-.35c1.06 0 1.91.338 2.55 1.013.527.553.791 1.177.791 1.873 0 .988-.538 1.776-1.613 2.364.641.139 1.153.451 1.537.935.384.484.576 1.069.576 1.753 0 .994-.361 1.842-1.082 2.542-.721.7-1.618 1.05-2.691 1.05-1.018 0-1.861-.293-2.53-.88-.671-.587-1.06-1.354-1.167-2.302zM152.346 235.67l-2.094.229c-.052-.427-.187-.742-.405-.945-.218-.203-.5-.305-.848-.305-.462 0-.852.208-1.171.623-.319.415-.52 1.275-.603 2.579.543-.634 1.218-.952 2.025-.952.911 0 1.69.343 2.34 1.029.65.686.974 1.571.974 2.656 0 1.152-.34 2.076-1.02 2.771-.68.696-1.553 1.044-2.618 1.044-1.144 0-2.083-.443-2.82-1.329-.737-.886-1.104-2.338-1.104-4.356 0-2.069.383-3.562 1.149-4.476.766-.914 1.761-1.371 2.985-1.371.858 0 1.569.24 2.133.718.564.479.923 1.174 1.077 2.085zm-4.937 4.751c0 .702.164 1.243.491 1.625.327.382.701.572 1.122.572.405 0 .743-.156 1.013-.468.27-.313.405-.825.405-1.537 0-.732-.146-1.269-.437-1.609a1.377 1.377 0 0 0-1.091-.511 1.38 1.38 0 0 0-1.068.488c-.291.325-.435.805-.435 1.44zM155.088 233.846h3.906v10.462c0 1.661.048 2.737.144 3.229.165.791.559 1.426 1.181 1.904s1.473.718 2.552.718c1.096 0 1.923-.226 2.48-.679.557-.452.892-1.008 1.005-1.667.113-.659.17-1.752.17-3.281v-10.686h3.906v10.151c0 2.32-.105 3.959-.315 4.917-.21.958-.597 1.767-1.162 2.426-.565.659-1.319 1.185-2.264 1.576-.945.391-2.179.586-3.702.586-1.838 0-3.231-.213-4.181-.639-.949-.426-1.7-.98-2.251-1.661-.551-.681-.914-1.396-1.089-2.143-.254-1.107-.381-2.742-.381-4.904v-10.309h.001z"/>
    </g>
    <g>
      <path d="M239.939 368.093h-2.156v-8.145a7.41 7.41 0 0 1-2.781 1.645v-1.969c.562-.184 1.173-.532 1.832-1.046s1.112-1.112 1.357-1.798h1.748v11.313zM247.368 368.093v-2.25h-4.594v-1.867l4.871-7.195h1.816v7.188h1.406v1.875h-1.406v2.25h-2.093v-.001zm0-4.125v-3.889l-2.595 3.889h2.595zM257.422 368.093h-2.156v-8.145a7.402 7.402 0 0 1-2.781 1.645v-1.969c.563-.184 1.174-.532 1.832-1.046.66-.514 1.112-1.112 1.357-1.798h1.748v11.313zM261.946 357.759h7.715c1.527 0 2.666.063 3.416.191.75.127 1.422.394 2.014.798a4.943 4.943 0 0 1 1.481 1.615c.395.673.593 1.427.593 2.262 0 .905-.244 1.736-.734 2.492a4.537 4.537 0 0 1-1.989 1.701c1.177.342 2.081.926 2.713 1.75.632.825.948 1.795.948 2.909 0 .878-.204 1.73-.611 2.56-.408.829-.965 1.492-1.672 1.987-.705.496-1.576.801-2.611.915-.648.07-2.215.114-4.697.132h-6.564v-19.312h-.002zm3.906 3.219v4.469h2.555c1.518 0 2.461-.022 2.83-.066.668-.079 1.191-.31 1.574-.691.381-.383.572-.886.572-1.51 0-.598-.164-1.083-.494-1.456-.328-.374-.818-.601-1.468-.68-.386-.044-1.497-.065-3.331-.065h-2.238v-.001zm0 7.688v5.125h3.598c1.4 0 2.288-.039 2.665-.118.577-.104 1.048-.359 1.411-.765s.545-.947.545-1.628c0-.575-.141-1.063-.42-1.464-.281-.4-.686-.692-1.215-.876-.529-.183-1.678-.274-3.446-.274h-3.138zM284.135 367.384l-3.344-.594c.378-1.37 1.029-2.385 1.953-3.044.924-.658 2.296-.987 4.117-.987 1.653 0 2.885.195 3.694.586.81.392 1.379.888 1.709 1.489.33.603.495 1.707.495 3.314l-.063 4.323c0 1.23.059 2.138.178 2.722.119.584.341 1.21.666 1.878h-3.656a13.105 13.105 0 0 1-.355-1.089 6.825 6.825 0 0 0-.132-.433c-.632.611-1.309 1.069-2.028 1.375a5.827 5.827 0 0 1-2.305.459c-1.439 0-2.574-.39-3.404-1.168-.83-.778-1.244-1.762-1.244-2.951 0-.787.188-1.489.566-2.105a3.684 3.684 0 0 1 1.586-1.417c.68-.328 1.66-.614 2.941-.859 1.729-.323 2.927-.625 3.594-.905v-.374c0-.721-.176-1.234-.529-1.541-.352-.307-1.018-.46-1.994-.46-.662 0-1.177.132-1.547.395-.369.263-.669.725-.898 1.386zm4.969 3c-.475.157-1.227.345-2.256.563-1.029.218-1.702.433-2.019.643-.483.341-.726.774-.726 1.299 0 .516.193.961.58 1.337.387.376.88.564 1.479.564.668 0 1.305-.219 1.912-.656.449-.332.744-.738.885-1.22.096-.314.145-.913.145-1.796v-.734z"/>
    </g>
    <g>
      <path d="M26.169 373.768l2.094-.23c.051.425.184.739.397.943.214.205.497.307.849.307.442 0 .819-.207 1.13-.622.311-.415.51-1.272.597-2.571-.542.629-1.22.943-2.033.943-.885 0-1.647-.341-2.289-1.024-.642-.683-.963-1.572-.963-2.668 0-1.141.339-2.061 1.016-2.76.677-.698 1.538-1.048 2.585-1.048 1.139 0 2.073.443 2.804 1.328.73.886 1.096 2.342 1.096 4.368 0 2.063-.38 3.552-1.141 4.465-.761.914-1.751 1.37-2.971 1.37-.878 0-1.588-.233-2.129-.702-.542-.468-.888-1.167-1.042-2.099zm4.875-4.756c0-.695-.159-1.234-.479-1.618-.318-.383-.688-.575-1.105-.575-.397 0-.728.157-.99.472-.262.315-.395.829-.395 1.545 0 .727.143 1.259.429 1.599.285.34.643.51 1.071.51.413 0 .761-.163 1.044-.49.283-.327.425-.809.425-1.443zM42.193 374.35v2h-7.594a5.179 5.179 0 0 1 .742-2.157c.412-.68 1.228-1.581 2.444-2.704.979-.908 1.58-1.523 1.802-1.847.299-.446.449-.887.449-1.323 0-.481-.133-.853-.396-1.111-.265-.259-.63-.389-1.096-.389-.461 0-.827.136-1.1.405-.272.271-.429.719-.471 1.345l-2.156-.214c.129-1.182.534-2.03 1.216-2.545.682-.515 1.534-.772 2.557-.772 1.12 0 2.001.301 2.642.9s.961 1.346.961 2.237c0 .508-.092.991-.275 1.45-.183.459-.473.939-.87 1.441-.263.333-.74.813-1.431 1.438-.691.625-1.129 1.04-1.312 1.245a3.69 3.69 0 0 0-.444.6h4.332v.001zM44.935 385.329v-19.313h3.906v8.541l7.895-8.541h5.246l-7.287 7.517 7.662 11.796h-5.042l-5.328-9.064-3.146 3.225v5.84h-3.906v-.001zM67.875 385.329h-3.688v-14h3.438v1.988c.588-.939 1.117-1.558 1.587-1.854a2.924 2.924 0 0 1 1.601-.446c.843 0 1.655.232 2.438.696l-1.141 3.222c-.627-.403-1.209-.605-1.747-.605-.521 0-.962.143-1.323.429-.361.286-.646.803-.854 1.55-.208.747-.311 2.313-.311 4.695v4.325z"/>
    </g>
    <g>
      <path stroke-miterlimit="1" fill="none" stroke="gray" stroke-width="15" d="M154.693 162.121v7.58"/>
      <path fill="gray" d="M131.382 164.14l23.311 3.114 23.317-3.114-23.317 17.379-23.311-17.379z"/>
    </g>
    <g>
      <path stroke-miterlimit="1" fill="none" stroke="gray" stroke-width="15" d="M154.693 291.114v7.58"/>
      <path fill="gray" d="M131.382 293.134l23.311 3.114 23.317-3.114-23.317 17.379-23.311-17.379z"/>
    </g>
  </g>
</svg>